<mxfile host="app.diagrams.net" modified="2023-12-06T14:41:51.191Z" agent="Mozilla/5.0 (X11; Ubuntu; Linux x86_64; rv:109.0) Gecko/20100101 Firefox/119.0" etag="TOrDb3NrlOjlOvZu_Nq-" version="21.5.2" type="device">
  <diagram id="R2lEEEUBdFMjLlhIrx00" name="Page-1">
    <mxGraphModel dx="1101" dy="507" grid="1" gridSize="10" guides="1" tooltips="1" connect="1" arrows="1" fold="1" page="1" pageScale="1" pageWidth="850" pageHeight="1100" math="0" shadow="0" extFonts="Permanent Marker^https://fonts.googleapis.com/css?family=Permanent+Marker">
      <root>
        <mxCell id="0" />
        <mxCell id="1" parent="0" />
        <mxCell id="u6c7SbDtrNOStJkiOF8Q-9" style="edgeStyle=orthogonalEdgeStyle;rounded=0;orthogonalLoop=1;jettySize=auto;html=1;entryX=0;entryY=0.5;entryDx=0;entryDy=0;endArrow=ERzeroToMany;endFill=0;startArrow=ERmandOne;startFill=0;" edge="1" parent="1" source="u6c7SbDtrNOStJkiOF8Q-1" target="u6c7SbDtrNOStJkiOF8Q-3">
          <mxGeometry relative="1" as="geometry" />
        </mxCell>
        <mxCell id="u6c7SbDtrNOStJkiOF8Q-1" value="Пользователь" style="rounded=0;whiteSpace=wrap;html=1;" vertex="1" parent="1">
          <mxGeometry x="280" y="130" width="120" height="60" as="geometry" />
        </mxCell>
        <mxCell id="u6c7SbDtrNOStJkiOF8Q-10" style="edgeStyle=orthogonalEdgeStyle;rounded=0;orthogonalLoop=1;jettySize=auto;html=1;entryX=0.5;entryY=1;entryDx=0;entryDy=0;endArrow=ERzeroToMany;endFill=0;startArrow=ERzeroToMany;startFill=0;" edge="1" parent="1" source="u6c7SbDtrNOStJkiOF8Q-2" target="u6c7SbDtrNOStJkiOF8Q-1">
          <mxGeometry relative="1" as="geometry" />
        </mxCell>
        <mxCell id="u6c7SbDtrNOStJkiOF8Q-2" value="Кофейня" style="rounded=0;whiteSpace=wrap;html=1;" vertex="1" parent="1">
          <mxGeometry x="280" y="230" width="120" height="60" as="geometry" />
        </mxCell>
        <mxCell id="u6c7SbDtrNOStJkiOF8Q-8" style="edgeStyle=orthogonalEdgeStyle;rounded=0;orthogonalLoop=1;jettySize=auto;html=1;entryX=0;entryY=0.5;entryDx=0;entryDy=0;endArrow=ERoneToMany;endFill=0;startArrow=ERmandOne;startFill=0;" edge="1" parent="1" source="u6c7SbDtrNOStJkiOF8Q-3" target="u6c7SbDtrNOStJkiOF8Q-7">
          <mxGeometry relative="1" as="geometry" />
        </mxCell>
        <mxCell id="u6c7SbDtrNOStJkiOF8Q-3" value="Чек (факт оплаты)" style="rounded=0;whiteSpace=wrap;html=1;" vertex="1" parent="1">
          <mxGeometry x="445" y="130" width="120" height="60" as="geometry" />
        </mxCell>
        <mxCell id="u6c7SbDtrNOStJkiOF8Q-11" style="edgeStyle=orthogonalEdgeStyle;rounded=0;orthogonalLoop=1;jettySize=auto;html=1;entryX=1;entryY=0.5;entryDx=0;entryDy=0;endArrow=ERzeroToOne;endFill=0;startArrow=ERzeroToMany;startFill=0;" edge="1" parent="1" source="u6c7SbDtrNOStJkiOF8Q-4" target="u6c7SbDtrNOStJkiOF8Q-2">
          <mxGeometry relative="1" as="geometry" />
        </mxCell>
        <mxCell id="u6c7SbDtrNOStJkiOF8Q-4" value="Бариста" style="rounded=0;whiteSpace=wrap;html=1;" vertex="1" parent="1">
          <mxGeometry x="445" y="230" width="120" height="60" as="geometry" />
        </mxCell>
        <mxCell id="u6c7SbDtrNOStJkiOF8Q-12" style="edgeStyle=orthogonalEdgeStyle;rounded=0;orthogonalLoop=1;jettySize=auto;html=1;entryX=0.5;entryY=1;entryDx=0;entryDy=0;endArrow=ERzeroToMany;endFill=0;startArrow=ERoneToMany;startFill=0;" edge="1" parent="1" source="u6c7SbDtrNOStJkiOF8Q-5" target="u6c7SbDtrNOStJkiOF8Q-2">
          <mxGeometry relative="1" as="geometry" />
        </mxCell>
        <mxCell id="u6c7SbDtrNOStJkiOF8Q-5" value="Владелец" style="rounded=0;whiteSpace=wrap;html=1;" vertex="1" parent="1">
          <mxGeometry x="280" y="330" width="120" height="60" as="geometry" />
        </mxCell>
        <mxCell id="u6c7SbDtrNOStJkiOF8Q-13" style="edgeStyle=orthogonalEdgeStyle;rounded=0;orthogonalLoop=1;jettySize=auto;html=1;entryX=0;entryY=0.5;entryDx=0;entryDy=0;startArrow=ERzeroToMany;startFill=0;endArrow=ERzeroToMany;endFill=0;" edge="1" parent="1" source="u6c7SbDtrNOStJkiOF8Q-6" target="u6c7SbDtrNOStJkiOF8Q-1">
          <mxGeometry relative="1" as="geometry" />
        </mxCell>
        <mxCell id="u6c7SbDtrNOStJkiOF8Q-6" value="Награда" style="rounded=0;whiteSpace=wrap;html=1;" vertex="1" parent="1">
          <mxGeometry x="120" y="130" width="120" height="60" as="geometry" />
        </mxCell>
        <mxCell id="u6c7SbDtrNOStJkiOF8Q-7" value="Товар" style="rounded=0;whiteSpace=wrap;html=1;" vertex="1" parent="1">
          <mxGeometry x="610" y="130" width="120" height="60" as="geometry" />
        </mxCell>
      </root>
    </mxGraphModel>
  </diagram>
</mxfile>
